<svg width="1024" height="1024" viewBox="0 0 1024 1024" fill="none" xmlns="http://www.w3.org/2000/svg">
  <rect width="1024" height="1024" rx="220" fill="#06111F"/>
  <circle cx="512" cy="512" r="330" fill="#0052FF" opacity="0.16"/>
  <circle cx="512" cy="512" r="242" fill="#0EA5E9" opacity="0.12"/>
  <path d="M256 512C256 371 371 256 512 256C653 256 768 371 768 512C768 653 653 768 512 768C371 768 256 653 256 512Z" fill="#0B1727" stroke="#2F67FF" stroke-width="30"/>
  <path d="M354 548C354 459 426 386 515 386H670C687 386 701 400 701 417V608C701 625 687 639 670 639H515C426 639 354 567 354 548Z" fill="#F8FAFC"/>
  <path d="M354 548C354 459 426 386 515 386H670C687 386 701 400 701 417V608C701 625 687 639 670 639H515C426 639 354 567 354 548Z" fill="#F8FAFC"/>
  <path d="M428 512C428 457 473 412 528 412H656C667 412 676 421 676 432V592C676 603 667 612 656 612H528C473 612 428 567 428 512Z" fill="#0052FF"/>
  <path d="M492 560V464H525L557 522L589 464H622V560H591V516L569 560H546L523 516V560H492Z" fill="white"/>
  <path d="M356 464C369 439 390 416 417 400" stroke="#22C55E" stroke-width="30" stroke-linecap="round"/>
  <circle cx="696" cy="328" r="36" fill="#22C55E"/>
</svg>
